<svg width="5.2917mm" height="5.2917mm" version="1.1" viewBox="0 0 5.2917 5.2917" xmlns="http://www.w3.org/2000/svg">
 <g transform="translate(-68.595 -111.29)">
  <g transform="matrix(2.8714 0 0 3.0436 -128.37 -238.24)">
   <path transform="matrix(.092144 0 0 .086931 68.595 114.84)" d="m14.037-0.013672 0.001953 0.0019531c-1.5769 0.057517-3.1759 0.76063-4.4277 2.0879-0.024961 0.023007-0.047305 0.057071-0.072266 0.080078l-0.0039063-0.0019531-0.074219 0.080078c-2.4637-1.8384-5.7468-1.7084-7.8086 0.47656v0.0019531c-2.3294 2.469-2.1911 6.5923 0.3125 9.2461 0.024961 0.023007 0.055117 0.047522 0.080078 0.082032l-0.0039063 0.001953 7.4902 7.9395 0.91992-0.97461 0.001953 0.00586 7.4902-7.9414-0.001953-0.001954c0.026046-0.023006 0.053164-0.045568 0.078125-0.080078 2.5037-2.6538 2.6438-6.779 0.31445-9.248-1.1647-1.2344-2.7199-1.8161-4.2969-1.7559zm-2.2246 5.5195c0.71225-0.027608 1.4154 0.2331 1.9414 0.79102 1.0522 1.1153 0.98826 2.979-0.14258 4.1777-0.010551 0.011184-0.021541 0.023973-0.033203 0.035157l-3.3828 3.5879-0.001953-0.001953-0.41602 0.43945-3.3828-3.5859c-0.010722-0.011184-0.022652-0.023973-0.033203-0.035157-1.1309-1.1988-1.1947-3.0619-0.14258-4.1777 0.93136-0.98699 2.4145-1.0454 3.5273-0.21484l0.033203-0.035156 0.0019531 0.0019531c0.011938-0.011503 0.020398-0.023653 0.03125-0.035156 0.56542-0.59933 1.2877-0.90885 2-0.94336v-0.0039062z" fill="#f55" stroke-width=".47444"/>
  </g>
 </g>
</svg>
