<svg width="92.604mm" height="99.218mm" version="1.1" viewBox="0 0 92.604 99.218" xmlns="http://www.w3.org/2000/svg">
 <g transform="matrix(1.0935 0 0 1.0935 2.6013e-6 -7.2196e-7)">
  <g transform="matrix(1.2251 0 0 1.2251 -65.408 -202.78)">
   <rect x="76.737" y="219.75" width="25.225" height="18.336" fill="#ccc"/>
   <rect x="86.603" y="201.31" width="5.4934" height="5.9418" ry=".79904" fill="#f2f2f2"/>
   <circle cx="89.629" cy="191.71" r="12.684" fill="#ececec"/>
   <path d="m75.95 187.81s0.32326 7.512 2.6938 6.9975c2.3705-0.51453-0.74555-9.4797 1.194-8.142s-0.51261-5.09 2.5044-3.9581 6.6414-3.3958 7.6112-2.0581 2.9137-2.4681 5.9307 1.751c3.0171 4.2191 2.8614 0.21336 3.5079 4.7412 0.64651 4.5278 0.62592 2.8938 2.2977 5.5309 3.017 1.8523 1.7371-22.459-3.435-21.636-5.1721 0.82324-7.1116 6.0714-11.422 4.4249-4.3101-1.6465-11.422 0.51452-10.56 3.6017 0.86202 3.0872-0.32326 8.7469-0.32326 8.7469z" fill="#999"/>
   <rect x="76.737" y="205.8" width="25.225" height="32.288" rx="12.785" ry="8.4179" fill="#ccc"/>
   <rect x="86.603" y="205.01" width="5.4934" height="2.2422" rx="4.3127" ry="5.0112" fill="#f2f2f2"/>
   <path d="m95.141 200.81c0.4993 0.65989-1.4447-0.32076-3.3706-0.17286-1.9259 0.14788-3.1044 1.3683-3.6037 0.70842-0.49931-0.65989 0.65717-1.3147 2.5831-1.4626 1.9259-0.1479 3.8919 0.26716 4.3912 0.92705z" fill="#ccc"/>
  </g>
  <g transform="matrix(.93185 .13716 -.13716 .93185 -49.913 -156.01)" fill="#b3b3b3">
   <path d="m84.809 212.28 5.045-4.5738 2.9149 2.3318 5.9419-2.9596-6.5025 6.0088-3.027-2.4215z" fill="#b3b3b3"/>
  </g>
  <g transform="matrix(.19656 .87099 -.87099 .19656 175.75 -114.72)" fill="#808080">
   <g transform="matrix(1.479 .28607 -.28607 1.479 17.565 -128.18)">
    <path d="m93.577 208.63-4.6552 3.8242 0.70152 3.5564 1.8709-2.1382z" fill="#808080"/>
    <path d="m94.261 207.38 0.25896 0.17955-1.0224 8.5692-3.0499-3.3218 3.1289-4.1751-4.6552 3.8242-2.77-0.959z" fill="#b3b3b3"/>
    <path d="m90.448 212.8-0.82474 3.2055 1.8709-2.1382z" fill="#666"/>
   </g>
  </g>
  <g fill="#b3b3b3">
   <g transform="matrix(-.71219 .31861 .31861 .71219 76.177 -129.02)">
    <path d="m88.136 208.85s2.0045-1.8709 1.6036-2.4054c-0.4009-0.53454-0.4009-1.0691-0.93544-1.2027-0.53454-0.13363-2.6727-0.26727-2.6727-0.26727s-3.6081 2.5391-0.80181 5.479c2.8063 2.94 8.2854 7.6172 11.359 5.7463 0.7684-0.46772 1.3152-0.83868 1.7031-1.132s0.61702-0.50906 0.75006-0.66632c0.26608-0.31452 0 0 0 0l-2.7042-2.0771-2.5553 1.6036s-5.6127-2.4054-5.7463-5.0781z" fill="#b3b3b3"/>
   </g>
   <g transform="matrix(.37241 -.12768 .12768 .37241 17.871 -40.003)">
    <path d="m84.291 197.97c-3.5611 0-6.4279 2.8945-6.4279 6.4902v13.478c0 3.5956 2.8669 6.4903 6.4279 6.4903h13.603c3.561 0 6.4278-2.8947 6.4278-6.4903v-13.478c0-3.5956-2.8667-6.4902-6.4278-6.4902zm1.1099 2.1586h11.383c2.98 0 5.3791 2.4222 5.3791 5.4311v11.279c0 3.0089-2.3991 5.4311-5.3791 5.4311h-11.383c-2.98 0-5.3791-2.4222-5.3791-5.4311v-11.279c0-3.0089 2.3991-5.4311 5.3791-5.4311z" stroke-width=".089474"/>
    <path d="m91.092 205.29a5.8514 5.9082 0 0 0-5.8512 5.9082 5.8514 5.9082 0 0 0 5.8512 5.908 5.8514 5.9082 0 0 0 5.8514-5.908 5.8514 5.9082 0 0 0-5.8514-5.9082zm0 1.8536a4.0156 4.0546 0 0 1 4.0156 4.0546 4.0156 4.0546 0 0 1-4.0156 4.0546 4.0156 4.0546 0 0 1-4.0156-4.0546 4.0156 4.0546 0 0 1 4.0156-4.0546z" stroke-width=".080702"/>
    <ellipse cx="98.597" cy="204.52" rx="1.7809" ry="1.7981" stroke-width=".083509"/>
   </g>
   <rect transform="matrix(1.1038 0 0 1.1038 -60.663 -173.71)" x="67.371" y="235.36" width="55.608" height="4.2234" rx=".92256" ry="1.1499"/>
   <path transform="matrix(1.1038 0 0 1.1038 -60.663 -173.71)" d="m65.548 177.18c-1.5839-0.40283-3.1361 0.42731-3.5969 2.2384-0.15383 0.55547-0.16023 1.1787-0.60673 0.45948-0.4659-0.57093-1.3664-0.64878-0.8807 0.75981 0.48574 1.4086 0.64931 1.7938-1.0009 2.7508-1.6502 0.95699 0.02291 1.0156 0.02291 1.0156s1.7409 0.56698 2.1786 1.1855c0.63617 0.44731 1.1363 1.1728 2.5381 1.0609 1.4537-0.50353 2.706 0.12227 2.706 0.12227s1.3927 0.45039 0.63676-0.67988c-0.99232-1.6292-0.23669-2.18 0.8631-3.1852 0.55625-0.52694 0.07317-1.3526-0.77121-0.56336-0.80548 0.32861-0.04813-1.0942 0.05019-1.4667 0.4607-1.8112-0.55521-3.2947-2.1392-3.6976z" stroke-width=".12591"/>
   <path d="m79.752 13.775s-4.593 4.3359-10.075 0.0869c0 0-1.3484 0.99518-1.5652 0.74991l1.0057-1.3413s-1.4813 0.81714-1.9079 0.4038c0 0 1.7119-0.84707 1.5858-1.3775-0.15669-0.3819 0.2566-5.3807 4.9362-3.1306 0 0 2.416-4.2193 1.0516-6.8154 0 0 3.8737 2.8173 2.365 4.6144 0 0 1.2085-1.2504 1.0605-3.3013 0 0 1.7275 1.885-0.13705 4.9 0 0 2.1451-1.2157 1.8233-1.7598 0 0 0.39966 2.2526-1.3399 3.65 0 0 3.5784-0.42527 4.6467-2.3606 0 0-0.96961 3.4457-3.4496 5.6814z"/>
  </g>
 </g>
</svg>
