<svg width="107.33mm" height="94.649mm" version="1.1" viewBox="0 0 107.33 94.649" xmlns="http://www.w3.org/2000/svg">
 <g transform="translate(-44.786 -143.1)" fill="#808080">
  <g transform="matrix(1.1038,0,0,1.1038,-4.2234,-24.866)">
   <g transform="matrix(1.1099,0,0,1.1099,-7.1179,-26.334)">
    <rect x="76.737" y="219.75" width="25.225" height="18.336" fill="#6f8faa"/>
    <rect x="86.603" y="201.31" width="5.4934" height="5.9418" ry=".79904" fill="#fda57d"/>
    <circle cx="89.629" cy="191.71" r="12.684" fill="#fda57d"/>
    <path d="m103.3 187.81s-0.32325 7.512-2.6938 6.9975c-2.3705-0.51453 0.74555-9.4797-1.194-8.142-1.9395 1.3378 0.51261-5.09-2.5044-3.9581s-6.6414-3.3958-7.6112-2.0581-2.9137-2.4681-5.9307 1.751c-3.0171 4.2191-2.8614 0.21336-3.5079 4.7412-0.64651 4.5278-0.62592 2.8938-2.2977 5.5309-3.017 1.8523-1.7371-22.459 3.435-21.636 5.1721 0.82324 7.1116 6.0714 11.422 4.4249 4.3101-1.6465 11.422 0.51452 10.56 3.6017-0.86202 3.0872 0.32325 8.7469 0.32325 8.7469z" fill="#3d4f5e"/>
    <rect x="76.737" y="205.8" width="25.225" height="32.288" rx="12.785" ry="8.4179" fill="#6f8faa"/>
    <g>
     <rect x="86.603" y="205.01" width="5.4934" height="2.2422" rx="4.3127" ry="5.0112" fill="#fda57d"/>
     <path d="m93.861 200.14c0.2519-0.34278-1.0394 0.33052-2.5376 0.53154-1.4981 0.20104-2.6358-0.14631-2.8877 0.1965-0.2519 0.34278 0.75838 0.45768 2.2565 0.25666 1.4981-0.20103 2.9169-0.64188 3.1687-0.98467z" fill="#3d4f5e" opacity=".88"/>
     <circle cx="119.72" cy="171.56" r="10.73" fill="#fdd835"/>
    </g>
   </g>
   <g transform="translate(-90.613,-26.8)" fill="#808080">
    <g transform="matrix(.40845 0 0 .40845 157.15 115.38)" fill="#6fb1aa">
     <ellipse cx="-5.9136" cy="170.17" rx="13.895" ry="12.704" stroke-width=".22345"/>
     <rect x="-28.277" y="169.9" width="37.581" height="13.762" ry="6.6366" stroke-width=".22507"/>
     <ellipse cx="-16.368" cy="170.96" rx="9.7924" ry="8.9984" stroke-width=".15788"/>
    </g>
   </g>
   <g transform="translate(-101.2,-9.068)" fill="#808080">
    <g transform="matrix(.40845 0 0 .40845 157.15 115.38)" fill="#6fb1aa">
     <ellipse cx="-5.9136" cy="170.17" rx="13.895" ry="12.704" stroke-width=".22345"/>
     <rect x="-28.277" y="169.9" width="37.581" height="13.762" ry="6.6366" stroke-width=".22507"/>
     <ellipse cx="-16.368" cy="170.96" rx="9.7924" ry="8.9984" stroke-width=".15788"/>
    </g>
   </g>
   <path d="m135.43 178.66s3.5692-1.0388 2.8178 0.2968 1.7846-3.4132 3.2874-1.9292" fill="none" stroke="#3d4f5e" stroke-width=".30244"/>
   <path d="m131.53 184.2s3.6791-0.53148 2.749 0.68643c-0.93012 1.2179 2.2426-3.1313 3.524-1.4525" fill="none" stroke="#3d4f5e" stroke-width=".30244"/>
  </g>
 </g>
</svg>
